<?xml version="1.0" standalone="no"?>
<!DOCTYPE svg PUBLIC "-//W3C//DTD SVG 20010904//EN"
 "http://www.w3.org/TR/2001/REC-SVG-20010904/DTD/svg10.dtd">
<svg version="1.0" xmlns="http://www.w3.org/2000/svg"
 width="200.000000pt" height="200.000000pt" viewBox="0 0 200.000000 200.000000"
 preserveAspectRatio="xMidYMid meet">
<metadata>
Created by potrace 1.11, written by Peter Selinger 2001-2013
</metadata>
<g transform="translate(0.000000,200.000000) scale(0.100000,-0.100000)"
fill="#000000" stroke="none">
<path d="M1830 1579 c-36 -3 -272 -5 -524 -5 l-459 2 -11 -28 c-7 -20 -15 -26
-26 -22 -95 41 -119 44 -452 48 -266 4 -277 4 -283 -15 -13 -39 3 -57 59 -69
98 -20 89 31 89 -538 0 -383 -3 -505 -12 -516 -7 -8 -32 -18 -56 -22 -52 -7
-74 -21 -79 -50 -8 -38 7 -47 75 -43 35 1 151 2 257 1 l192 -1 0 34 c0 39 -13
49 -77 59 -60 9 -91 25 -96 50 -2 11 -4 109 -3 216 l1 195 59 0 59 0 149 -220
c166 -246 207 -299 250 -321 32 -17 91 -18 502 -12 l209 3 4 27 c4 33 -20 58
-56 58 -37 0 -93 20 -107 38 -8 11 -11 167 -10 516 l1 501 105 2 c175 3 229
-23 285 -134 31 -62 52 -77 90 -63 20 8 25 15 20 30 -4 11 -17 73 -31 137 -30
145 -35 151 -124 142z m-1185 -140 c83 -39 127 -126 121 -242 -4 -76 -24 -125
-64 -159 -44 -37 -88 -49 -189 -51 l-88 -2 -1 230 c0 127 2 236 4 244 8 21
159 7 217 -20z m635 -27 c1 -31 1 -259 1 -507 0 -443 -1 -450 -21 -467 -29
-23 -102 -33 -131 -18 -44 24 -43 23 -292 378 -43 62 -77 115 -75 116 1 2 18
11 35 20 75 38 147 123 175 207 20 59 15 160 -11 226 l-20 51 23 16 c38 25 85
32 204 34 l112 1 0 -57z"/>
</g>
</svg>
